<?xml version="1.0" encoding="utf-8"?>
<!-- Generator: Adobe Illustrator 16.0.0, SVG Export Plug-In . SVG Version: 6.00 Build 0)  -->
<!DOCTYPE svg PUBLIC "-//W3C//DTD SVG 1.1//EN" "http://www.w3.org/Graphics/SVG/1.1/DTD/svg11.dtd">
<svg version="1.1" xmlns="http://www.w3.org/2000/svg" xmlns:xlink="http://www.w3.org/1999/xlink" x="0px" y="0px"
	 width="392.516px" height="173.637px" viewBox="0 0 392.516 173.637" enable-background="new 0 0 392.516 173.637"
	 xml:space="preserve">
<g id="under_line_text">
	<g>
		<path fill="#FFFFFF" d="M119.031-108.27h-1.471v-5.822h-5.594v5.822h-1.471v-12.143h1.471v4.891h5.594v-4.891h1.471V-108.27z"/>
		<path fill="#FFFFFF" d="M130.888-108.252h-1.575l-1.347-3.046h-5.408l-1.347,3.046h-1.575l5.657-12.66L130.888-108.252z
			 M127.365-112.645l-2.093-4.953l-2.093,4.953H127.365z"/>
		<path fill="#FFFFFF" d="M138.976-108.27h-1.803l-3.46-5.139h-0.601v5.139h-1.492v-12.143h1.782c1.423,0,2.473,0.201,3.15,0.602
			c1.022,0.594,1.533,1.554,1.533,2.88c0,0.856-0.256,1.596-0.767,2.218c-0.511,0.621-1.195,1.008-2.051,1.16L138.976-108.27z
			 M136.696-116.869c0-1.463-1.064-2.195-3.191-2.195h-0.394v4.393h0.456C135.653-114.672,136.696-115.404,136.696-116.869z"/>
		<path fill="#FFFFFF" d="M148.786-114.402c0,1.961-0.622,3.488-1.865,4.578c-1.188,1.037-2.776,1.555-4.766,1.555h-2.383v-12.143
			h2.424c1.961,0,3.529,0.498,4.704,1.492C148.157-117.842,148.786-116.336,148.786-114.402z M147.314-114.341
			c0-3.122-1.851-4.683-5.553-4.683h-0.518v9.365h0.518C145.463-109.658,147.314-111.219,147.314-114.341z"/>
		<path fill="#FFFFFF" d="M165.148-120.393l-4.869,12.598l-3.336-8.909l-3.295,8.909l-4.911-12.598h1.575l3.336,8.641l3.295-8.91
			l3.336,8.91l3.294-8.641H165.148z"/>
		<path fill="#FFFFFF" d="M175.831-108.252h-1.575l-1.347-3.046H167.5l-1.347,3.046h-1.575l5.657-12.66L175.831-108.252z
			 M172.308-112.645l-2.093-4.953l-2.093,4.953H172.308z"/>
		<path fill="#FFFFFF" d="M183.918-108.27h-1.803l-3.46-5.139h-0.601v5.139h-1.492v-12.143h1.782c1.423,0,2.473,0.201,3.15,0.602
			c1.022,0.594,1.533,1.554,1.533,2.88c0,0.856-0.256,1.596-0.767,2.218c-0.511,0.621-1.195,1.008-2.051,1.16L183.918-108.27z
			 M181.639-116.869c0-1.463-1.064-2.195-3.191-2.195h-0.394v4.393h0.456C180.596-114.672,181.639-115.404,181.639-116.869z"/>
		<path fill="#FFFFFF" d="M191.149-108.27h-6.34v-12.143h6.34v1.389H186.3v3.398h4.703v1.367H186.3v4.6h4.849V-108.27z"/>
		<path fill="#FFFFFF" d="M209.123-108.271h-1.803l-1.264-1.637c-1.133,1.258-2.314,1.886-3.544,1.886
			c-1.022,0-1.882-0.339-2.579-1.015c-0.698-0.678-1.047-1.527-1.047-2.549c0-0.691,0.2-1.313,0.601-1.865
			c0.276-0.387,0.76-0.836,1.451-1.347l0.767-0.581c-0.87-0.91-1.306-1.788-1.306-2.631c0-0.787,0.249-1.426,0.746-1.916
			s1.153-0.736,1.969-0.736c0.76,0,1.405,0.231,1.937,0.694c0.532,0.463,0.798,1.073,0.798,1.833c0,0.705-0.331,1.389-0.994,2.053
			c-0.222,0.207-0.615,0.531-1.181,0.973l2.465,3.047l1.368-1.637l0.933,0.994l-1.43,1.72L209.123-108.271z M205.144-110.985
			l-2.569-3.294l-0.166,0.123c-0.732,0.525-1.188,0.878-1.367,1.057c-0.512,0.498-0.767,0.996-0.767,1.492
			c0,0.595,0.217,1.116,0.652,1.564c0.436,0.449,0.943,0.674,1.523,0.674C203.21-109.369,204.108-109.908,205.144-110.985z
			 M204.44-118.154c0-0.885-0.456-1.326-1.368-1.326c-0.373,0-0.684,0.121-0.933,0.362s-0.373,0.556-0.373,0.942
			c0,0.359,0.229,0.863,0.685,1.513l0.414,0.477l0.166-0.104c0.414-0.29,0.725-0.546,0.933-0.767
			C204.281-117.388,204.44-117.754,204.44-118.154z"/>
		<path fill="#FFFFFF" d="M217.598-108.27h-1.471v-12.143h1.471V-108.27z"/>
		<path fill="#FFFFFF" d="M229.708-107.755l-8.827-9.511v9.158h-1.471v-12.867l8.827,9.531v-8.93h1.471V-107.755z"/>
		<path fill="#FFFFFF" d="M240.494-114.402c0,1.961-0.621,3.488-1.865,4.578c-1.188,1.037-2.775,1.555-4.766,1.555h-2.383v-12.143
			h2.425c1.962,0,3.529,0.498,4.704,1.492C239.865-117.842,240.494-116.336,240.494-114.402z M239.023-114.341
			c0-3.122-1.852-4.683-5.553-4.683h-0.519v9.365h0.519C237.171-109.658,239.023-111.219,239.023-114.341z"/>
		<path fill="#FFFFFF" d="M250.16-112.725c0,1.367-0.373,2.479-1.119,3.336c-0.787,0.912-1.858,1.367-3.212,1.367
			c-1.326,0-2.372-0.448-3.139-1.346c-0.767-0.898-1.15-2.018-1.15-3.357v-7.688h1.472v7.17c0,2.541,0.938,3.813,2.817,3.813
			c1.906,0,2.859-1.271,2.859-3.813v-7.17h1.472V-112.725z"/>
		<path fill="#FFFFFF" d="M258.726-111.793c0,1.091-0.356,1.992-1.067,2.703c-0.712,0.712-1.613,1.067-2.704,1.067
			c-0.953,0-1.762-0.331-2.425-0.995c-0.636-0.621-1.029-1.415-1.181-2.383l1.492-0.352c0,0.677,0.207,1.232,0.621,1.668
			s0.96,0.652,1.637,0.652c0.636,0,1.153-0.23,1.555-0.693c0.4-0.463,0.601-1.02,0.601-1.668c0-0.58-0.207-1.07-0.622-1.472
			c-0.248-0.234-0.718-0.511-1.408-0.829l-0.788-0.373c-0.829-0.373-1.43-0.752-1.803-1.139c-0.511-0.525-0.767-1.168-0.767-1.928
			c0-0.939,0.353-1.706,1.057-2.3c0.663-0.553,1.472-0.829,2.425-0.829c1.313,0,2.327,0.602,3.046,1.803l-1.181,0.725
			c-0.47-0.731-1.105-1.098-1.906-1.098c-0.539,0-1.002,0.152-1.389,0.456s-0.58,0.719-0.58,1.243c0,0.732,0.538,1.313,1.616,1.74
			l0.85,0.353c0.967,0.387,1.671,0.829,2.113,1.326C258.457-113.506,258.726-112.732,258.726-111.793z"/>
		<path fill="#FFFFFF" d="M266.058-119.023h-2.798v10.754h-1.45v-10.754h-2.798v-1.389h7.046V-119.023z"/>
		<path fill="#FFFFFF" d="M274.341-108.27h-1.803l-3.461-5.139h-0.601v5.139h-1.492v-12.143h1.782c1.423,0,2.473,0.201,3.149,0.602
			c1.022,0.594,1.533,1.554,1.533,2.88c0,0.856-0.256,1.596-0.767,2.218c-0.511,0.621-1.194,1.008-2.051,1.16L274.341-108.27z
			 M272.062-116.869c0-1.463-1.064-2.195-3.191-2.195h-0.394v4.393h0.456C271.019-114.672,272.062-115.404,272.062-116.869z"/>
		<path fill="#FFFFFF" d="M276.672-108.27h-1.472v-12.143h1.472V-108.27z"/>
		<path fill="#FFFFFF" d="M288.611-108.252h-1.575l-1.347-3.046h-5.408l-1.347,3.046h-1.575l5.657-12.66L288.611-108.252z
			 M285.087-112.645l-2.093-4.953l-2.093,4.953H285.087z"/>
		<path fill="#FFFFFF" d="M294.398-108.27h-5.056v-12.143h1.492v10.754h3.564V-108.27z"/>
		<path fill="#FFFFFF" d="M308.35-111.793c0,1.091-0.355,1.992-1.066,2.703c-0.711,0.712-1.613,1.067-2.705,1.067
			c-0.953,0-1.76-0.331-2.424-0.995c-0.635-0.621-1.029-1.415-1.182-2.383l1.492-0.352c0,0.677,0.207,1.232,0.623,1.668
			c0.414,0.436,0.959,0.652,1.637,0.652c0.635,0,1.152-0.23,1.553-0.693s0.602-1.02,0.602-1.668c0-0.58-0.207-1.07-0.621-1.472
			c-0.25-0.234-0.719-0.511-1.41-0.829l-0.787-0.373c-0.828-0.373-1.43-0.752-1.803-1.139c-0.512-0.525-0.766-1.168-0.766-1.928
			c0-0.939,0.352-1.706,1.057-2.3c0.662-0.553,1.471-0.829,2.424-0.829c1.313,0,2.328,0.602,3.047,1.803l-1.182,0.725
			c-0.471-0.731-1.105-1.098-1.906-1.098c-0.539,0-1.002,0.152-1.389,0.456s-0.58,0.719-0.58,1.243c0,0.732,0.539,1.313,1.615,1.74
			l0.85,0.353c0.967,0.387,1.672,0.829,2.115,1.326C308.08-113.506,308.35-112.732,308.35-111.793z"/>
		<path fill="#FFFFFF" d="M318.162-112.725c0,1.367-0.373,2.479-1.117,3.336c-0.789,0.912-1.859,1.367-3.213,1.367
			c-1.326,0-2.373-0.448-3.139-1.346c-0.768-0.898-1.15-2.018-1.15-3.357v-7.688h1.471v7.17c0,2.541,0.939,3.813,2.818,3.813
			c1.906,0,2.859-1.271,2.859-3.813v-7.17h1.471V-112.725z"/>
		<path fill="#FFFFFF" d="M326.41-116.889c0,1.188-0.406,2.092-1.223,2.714c-0.717,0.553-1.691,0.829-2.92,0.829h-0.83v5.076h-1.492
			v-12.143h1.699c1.479,0,2.59,0.215,3.336,0.643C325.934-119.203,326.41-118.242,326.41-116.889z M325.023-116.931
			c0-1.423-1.064-2.134-3.191-2.134h-0.395v4.351h0.457C323.98-114.714,325.023-115.453,325.023-116.931z"/>
		<path fill="#FFFFFF" d="M333.912-116.889c0,1.188-0.408,2.092-1.223,2.714c-0.719,0.553-1.691,0.829-2.922,0.829h-0.828v5.076
			h-1.492v-12.143h1.699c1.477,0,2.59,0.215,3.336,0.643C333.436-119.203,333.912-118.242,333.912-116.889z M332.523-116.931
			c0-1.423-1.064-2.134-3.191-2.134h-0.393v4.351h0.455C331.48-114.714,332.523-115.453,332.523-116.931z"/>
		<path fill="#FFFFFF" d="M340.004-108.27h-5.057v-12.143h1.492v10.754h3.564V-108.27z"/>
		<path fill="#FFFFFF" d="M342.168-108.27h-1.471v-12.143h1.471V-108.27z"/>
		<path fill="#FFFFFF" d="M350.447-108.27h-6.342v-12.143h6.342v1.389h-4.85v3.398h4.703v1.367h-4.703v4.6h4.85V-108.27z"/>
		<path fill="#FFFFFF" d="M358.805-111.793c0,1.091-0.355,1.992-1.068,2.703c-0.711,0.712-1.611,1.067-2.703,1.067
			c-0.953,0-1.762-0.331-2.424-0.995c-0.637-0.621-1.029-1.415-1.182-2.383l1.492-0.352c0,0.677,0.207,1.232,0.621,1.668
			s0.961,0.652,1.637,0.652c0.635,0,1.154-0.23,1.555-0.693s0.602-1.02,0.602-1.668c0-0.58-0.209-1.07-0.623-1.472
			c-0.248-0.234-0.719-0.511-1.408-0.829l-0.787-0.373c-0.83-0.373-1.43-0.752-1.803-1.139c-0.512-0.525-0.768-1.168-0.768-1.928
			c0-0.939,0.352-1.706,1.057-2.3c0.664-0.553,1.471-0.829,2.424-0.829c1.313,0,2.328,0.602,3.047,1.803l-1.182,0.725
			c-0.469-0.731-1.105-1.098-1.906-1.098c-0.539,0-1.002,0.152-1.389,0.456s-0.58,0.719-0.58,1.243c0,0.732,0.539,1.313,1.617,1.74
			l0.85,0.353c0.967,0.387,1.672,0.829,2.113,1.326C358.535-113.506,358.805-112.732,358.805-111.793z"/>
	</g>
</g>
<g id="line">
	<rect x="22.871" y="-139.058" fill="#FBE737" width="335.893" height="7.292"/>
</g>
<g id="font">
	<path fill="#FFF100" d="M24.071-168.1h7.174v9.004h7.866v-9.004h7.209v25.679h-7.209v-10.37h-7.866v10.37h-7.174V-168.1z"/>
	<path fill="#FFF100" d="M65.191-146.676h-8.145l-1.135,4.255h-7.341l8.703-25.679h7.87l8.727,25.679h-7.518L65.191-146.676z
		 M63.705-152.221l-2.566-9.223l-2.533,9.223H63.705z"/>
	<path fill="#FFF100" d="M76.097-142.421V-168.1h11.984c2.223,0,3.922,0.212,5.096,0.63c1.178,0.421,2.123,1.197,2.844,2.336
		c0.718,1.135,1.08,2.518,1.08,4.151c0,1.421-0.275,2.647-0.828,3.681c-0.551,1.03-1.311,1.87-2.276,2.507
		c-0.614,0.406-1.456,0.747-2.53,1.017c0.857,0.317,1.483,0.634,1.871,0.953c0.264,0.214,0.646,0.664,1.15,1.36
		c0.5,0.695,0.838,1.227,1.003,1.604l3.51,7.439h-8.114l-3.869-7.866c-0.486-1.016-0.924-1.681-1.306-1.98
		c-0.522-0.397-1.111-0.598-1.769-0.598h-0.641v10.444H76.097z M83.302-157.727h3.048c0.331,0,0.968-0.119,1.915-0.351
		c0.479-0.106,0.869-0.371,1.174-0.806c0.301-0.43,0.453-0.922,0.453-1.481c0-0.826-0.24-1.463-0.717-1.905
		c-0.482-0.439-1.38-0.663-2.696-0.663h-3.177V-157.727z"/>
	<path fill="#FFF100" d="M101.196-168.1h10.673c2.108,0,3.808,0.317,5.104,0.948c1.295,0.631,2.364,1.534,3.211,2.713
		c0.844,1.181,1.457,2.554,1.838,4.116c0.383,1.565,0.575,3.225,0.575,4.976c0,2.743-0.286,4.873-0.851,6.382
		c-0.566,1.516-1.35,2.779-2.358,3.802c-1.002,1.021-2.081,1.702-3.234,2.041c-1.575,0.468-3.002,0.701-4.284,0.701h-10.673V-168.1z
		 M108.371-162.287v14.015h1.767c1.505,0,2.573-0.183,3.209-0.547c0.64-0.37,1.138-1.01,1.499-1.929
		c0.361-0.912,0.54-2.4,0.54-4.453c0-2.717-0.401-4.576-1.21-5.581c-0.807-1-2.141-1.505-4.008-1.505H108.371z"/>
	<path fill="#FFF100" d="M124.362-168.1h6.819l2.47,14.287l3.589-14.287h6.768l3.596,14.271l2.476-14.271h6.786l-5.121,25.679h-7.04
		l-4.074-16.167l-4.06,16.167h-7.04L124.362-168.1z"/>
	<path fill="#FFF100" d="M173.364-146.676h-8.149l-1.129,4.255h-7.346l8.707-25.679h7.866l8.725,25.679h-7.514L173.364-146.676z
		 M171.876-152.221l-2.569-9.223l-2.532,9.223H171.876z"/>
	<path fill="#FFF100" d="M184.266-142.421V-168.1h11.985c2.223,0,3.922,0.212,5.099,0.63c1.175,0.421,2.122,1.197,2.842,2.336
		c0.721,1.135,1.079,2.518,1.079,4.151c0,1.421-0.276,2.647-0.825,3.681c-0.555,1.03-1.31,1.87-2.276,2.507
		c-0.618,0.406-1.457,0.747-2.528,1.017c0.852,0.317,1.478,0.634,1.866,0.953c0.269,0.214,0.649,0.664,1.152,1.36
		c0.498,0.695,0.835,1.227,1.004,1.604l3.509,7.439h-8.115l-3.869-7.866c-0.488-1.016-0.926-1.681-1.308-1.98
		c-0.519-0.397-1.109-0.598-1.765-0.598h-0.639v10.444H184.266z M191.477-157.727h3.042c0.334,0,0.973-0.119,1.915-0.351
		c0.479-0.106,0.87-0.371,1.173-0.806c0.305-0.43,0.455-0.922,0.455-1.481c0-0.826-0.236-1.463-0.718-1.905
		c-0.479-0.439-1.377-0.663-2.694-0.663h-3.173V-157.727z"/>
	<path fill="#FFF100" d="M209.268-168.1h19.27v5.471h-12.062v4.103h11.207v5.239h-11.207v5.058h12.42v5.809h-19.628V-168.1z"/>
	<path fill="#A6A8AB" d="M232.625-168.1h7.176v9.004h7.864v-9.004h7.208v25.679h-7.208v-10.37h-7.864v10.37h-7.176V-168.1z"/>
	<path fill="#A6A8AB" d="M258.567-155.242c0-4.194,1.059-7.464,3.173-9.805c2.12-2.337,5.067-3.506,8.847-3.506
		c3.875,0,6.857,1.147,8.952,3.445c2.102,2.297,3.147,5.515,3.147,9.656c0,3.002-0.458,5.467-1.375,7.393
		c-0.917,1.923-2.24,3.415-3.969,4.491c-1.728,1.067-3.887,1.603-6.471,1.603c-2.623,0-4.795-0.459-6.515-1.389
		c-1.72-0.922-3.113-2.382-4.185-4.382C259.104-149.733,258.567-152.236,258.567-155.242z M265.746-155.207
		c0,2.605,0.437,4.473,1.312,5.608c0.877,1.139,2.07,1.708,3.578,1.708c1.55,0,2.748-0.559,3.6-1.671
		c0.853-1.116,1.275-3.111,1.275-5.995c0-2.425-0.445-4.197-1.334-5.317c-0.886-1.118-2.085-1.68-3.607-1.68
		c-1.451,0-2.621,0.568-3.502,1.706C266.185-159.711,265.746-157.83,265.746-155.207z"/>
	<path fill="#A6A8AB" d="M301.484-168.1h7.176v15.312c0,1.517-0.215,2.949-0.645,4.299c-0.424,1.348-1.1,2.529-2.014,3.538
		c-0.912,1.009-1.871,1.722-2.875,2.128c-1.396,0.571-3.072,0.858-5.031,0.858c-1.131,0-2.365-0.09-3.701-0.263
		c-1.338-0.175-2.453-0.523-3.353-1.044c-0.899-0.517-1.722-1.256-2.469-2.215c-0.743-0.959-1.256-1.941-1.526-2.961
		c-0.447-1.632-0.668-3.08-0.668-4.341V-168.1h7.174v15.668c0,1.4,0.354,2.492,1.055,3.283c0.701,0.786,1.674,1.181,2.92,1.181
		c1.234,0,2.201-0.384,2.904-1.162c0.701-0.778,1.053-1.876,1.053-3.302V-168.1z"/>
	<path fill="#A6A8AB" d="M311.992-150.911l6.846-0.475c0.15,1.229,0.453,2.163,0.906,2.808c0.74,1.043,1.797,1.56,3.17,1.56
		c1.025,0,1.813-0.266,2.369-0.795c0.553-0.531,0.834-1.151,0.834-1.856c0-0.661-0.266-1.26-0.795-1.782
		c-0.525-0.528-1.752-1.029-3.676-1.494c-3.152-0.784-5.398-1.825-6.742-3.12c-1.352-1.301-2.029-2.952-2.029-4.966
		c0-1.319,0.346-2.568,1.039-3.742c0.693-1.179,1.734-2.099,3.127-2.771c1.393-0.675,3.297-1.008,5.719-1.008
		c2.973,0,5.234,0.609,6.797,1.829c1.559,1.221,2.486,3.161,2.783,5.824l-6.781,0.437c-0.182-1.154-0.557-1.993-1.133-2.516
		c-0.57-0.525-1.367-0.789-2.381-0.789c-0.834,0-1.461,0.194-1.883,0.587c-0.424,0.391-0.637,0.866-0.637,1.429
		c0,0.41,0.176,0.778,0.523,1.106c0.336,0.34,1.135,0.654,2.406,0.946c3.141,0.751,5.387,1.505,6.744,2.272
		c1.361,0.767,2.35,1.718,2.969,2.85c0.615,1.136,0.926,2.403,0.926,3.808c0,1.648-0.412,3.168-1.236,4.558
		c-0.824,1.395-1.979,2.448-3.461,3.167c-1.479,0.719-3.346,1.08-5.602,1.08c-3.957,0-6.693-0.841-8.219-2.528
		C313.057-146.178,312.191-148.315,311.992-150.911z"/>
	<path fill="#A6A8AB" d="M336.531-168.1h19.266v5.471h-12.059v4.103h11.205v5.239h-11.205v5.058h12.42v5.809h-19.627V-168.1z"/>
</g>
<g id="windows">
	<g>
		<rect x="80.892" y="-194.362" fill="#FFF100" width="12.58" height="6.081"/>
		<rect x="107.103" y="-194.362" fill="#FFF100" width="12.586" height="6.081"/>
		<rect x="134.716" y="-194.362" fill="#FFF100" width="12.585" height="6.081"/>
		<rect x="158.486" y="-194.362" fill="#FFF100" width="12.583" height="6.081"/>
		<rect x="158.486" y="-179.776" fill="#FFF100" width="12.583" height="6.079"/>
		<rect x="134.716" y="-179.776" fill="#FFF100" width="12.585" height="6.079"/>
		<rect x="107.454" y="-179.776" fill="#FFF100" width="12.585" height="6.079"/>
		<rect x="80.541" y="-179.776" fill="#FFF100" width="12.584" height="6.079"/>
	</g>
</g>
<g id="circle">
	<rect x="-517.604" y="-223.197" fill="#034EA1" stroke="#034EA1" stroke-width="2" width="405.998" height="155.979"/>
	<g>
		<g>
			<path fill="#FFF100" d="M35.545-171.908c16.621-19.46,50.734-32.806,90.122-32.806c39.389,0,73.502,13.346,90.123,32.806h11.252
				c-16.861-24.304-55.901-41.328-101.375-41.328c-45.473,0-84.513,17.024-101.375,41.328H35.545z"/>
		</g>
	</g>
	<path fill="#FFF100" d="M-491.031-153.354h7.61v9.551h8.345v-9.551h7.647v27.241h-7.647v-11.001h-8.345v11.001h-7.61V-153.354z"/>
	<path fill="#FFF100" d="M-447.409-130.627h-8.64l-1.204,4.514h-7.787l9.232-27.241h8.349l9.257,27.241h-7.975L-447.409-130.627z
		 M-448.986-136.509l-2.723-9.784l-2.687,9.784H-448.986z"/>
	<path fill="#FFF100" d="M-435.839-126.113v-27.241h12.713c2.358,0,4.16,0.225,5.406,0.668c1.249,0.446,2.252,1.27,3.017,2.478
		c0.761,1.204,1.146,2.671,1.146,4.404c0,1.507-0.292,2.809-0.878,3.905c-0.584,1.093-1.39,1.984-2.415,2.659
		c-0.652,0.431-1.545,0.792-2.685,1.079c0.91,0.336,1.574,0.672,1.985,1.011c0.279,0.227,0.686,0.705,1.22,1.443
		c0.53,0.738,0.889,1.301,1.064,1.702l3.723,7.892h-8.608l-4.104-8.345c-0.516-1.078-0.98-1.783-1.385-2.101
		c-0.555-0.422-1.179-0.634-1.876-0.634h-0.68v11.08H-435.839z M-428.196-142.35h3.233c0.351,0,1.027-0.126,2.032-0.372
		c0.507-0.113,0.922-0.394,1.245-0.854c0.319-0.456,0.48-0.978,0.48-1.572c0-0.876-0.255-1.552-0.76-2.021
		c-0.512-0.466-1.464-0.704-2.86-0.704h-3.37V-142.35z"/>
	<path fill="#FFF100" d="M-409.214-153.354h11.322c2.237,0,4.04,0.336,5.414,1.006c1.374,0.669,2.508,1.627,3.406,2.878
		c0.895,1.252,1.545,2.709,1.95,4.366c0.406,1.661,0.61,3.421,0.61,5.278c0,2.91-0.304,5.169-0.902,6.77
		c-0.601,1.608-1.432,2.949-2.502,4.033c-1.063,1.083-2.208,1.806-3.431,2.165c-1.671,0.497-3.185,0.744-4.545,0.744h-11.322
		V-153.354z M-401.603-147.188v14.867h1.874c1.597,0,2.73-0.194,3.404-0.581c0.679-0.393,1.207-1.071,1.59-2.046
		c0.383-0.967,0.573-2.546,0.573-4.724c0-2.882-0.426-4.854-1.283-5.92c-0.856-1.061-2.271-1.596-4.252-1.596H-401.603z"/>
	<path fill="#FFF100" d="M-384.639-153.354h7.234l2.62,15.156l3.807-15.156h7.179l3.814,15.139l2.626-15.139h7.199l-5.433,27.241
		h-7.468l-4.322-17.15l-4.307,17.15h-7.468L-384.639-153.354z"/>
	<path fill="#FFF100" d="M-332.656-130.627h-8.645l-1.198,4.514h-7.792l9.237-27.241h8.345l9.255,27.241h-7.971L-332.656-130.627z
		 M-334.234-136.509l-2.726-9.784l-2.687,9.784H-334.234z"/>
	<path fill="#FFF100" d="M-321.091-126.113v-27.241h12.714c2.358,0,4.161,0.225,5.409,0.668c1.246,0.446,2.251,1.27,3.015,2.478
		c0.764,1.204,1.145,2.671,1.145,4.404c0,1.507-0.293,2.809-0.875,3.905c-0.588,1.093-1.389,1.984-2.415,2.659
		c-0.656,0.431-1.546,0.792-2.682,1.079c0.903,0.336,1.567,0.672,1.979,1.011c0.285,0.227,0.689,0.705,1.223,1.443
		c0.528,0.738,0.886,1.301,1.065,1.702l3.722,7.892h-8.609l-4.104-8.345c-0.518-1.078-0.982-1.783-1.387-2.101
		c-0.55-0.422-1.177-0.634-1.872-0.634h-0.677v11.08H-321.091z M-313.441-142.35h3.227c0.354,0,1.032-0.126,2.031-0.372
		c0.508-0.113,0.923-0.394,1.244-0.854c0.323-0.456,0.483-0.978,0.483-1.572c0-0.876-0.25-1.552-0.761-2.021
		c-0.509-0.466-1.461-0.704-2.858-0.704h-3.366V-142.35z"/>
	<path fill="#FFF100" d="M-294.568-153.354h20.442v5.803h-12.795v4.352h11.889v5.558h-11.889v5.365h13.175v6.162h-20.822V-153.354z"
		/>
	<path fill="#A6A8AB" d="M-269.79-153.354h7.612v9.551h8.342v-9.551h7.646v27.241h-7.646v-11.001h-8.342v11.001h-7.612V-153.354z"/>
	<path fill="#A6A8AB" d="M-242.27-139.714c0-4.449,1.123-7.918,3.366-10.401c2.249-2.479,5.375-3.719,9.385-3.719
		c4.111,0,7.274,1.217,9.497,3.655c2.229,2.437,3.339,5.85,3.339,10.244c0,3.185-0.486,5.799-1.458,7.842
		c-0.973,2.04-2.376,3.623-4.21,4.765c-1.833,1.132-4.124,1.7-6.864,1.7c-2.783,0-5.087-0.487-6.911-1.473
		c-1.824-0.978-3.303-2.526-4.439-4.648C-241.7-133.87-242.27-136.525-242.27-139.714z M-234.655-139.677
		c0,2.764,0.463,4.745,1.391,5.949c0.931,1.208,2.196,1.812,3.796,1.812c1.644,0,2.915-0.592,3.818-1.772
		c0.905-1.184,1.353-3.301,1.353-6.36c0-2.572-0.472-4.453-1.415-5.641c-0.939-1.187-2.212-1.782-3.827-1.782
		c-1.54,0-2.781,0.603-3.715,1.81C-234.188-144.455-234.655-142.459-234.655-139.677z"/>
	<path fill="#A6A8AB" d="M-196.743-153.354h7.613v16.243c0,1.609-0.229,3.128-0.686,4.561c-0.449,1.429-1.164,2.683-2.135,3.753
		c-0.969,1.07-1.984,1.827-3.051,2.257c-1.48,0.606-3.26,0.911-5.336,0.911c-1.199,0-2.51-0.095-3.926-0.278
		c-1.42-0.186-2.604-0.556-3.559-1.107c-0.953-0.548-1.825-1.333-2.617-2.35c-0.789-1.018-1.333-2.06-1.62-3.141
		c-0.474-1.731-0.708-3.268-0.708-4.605v-16.243h7.609v16.621c0,1.486,0.377,2.644,1.119,3.483c0.744,0.834,1.777,1.253,3.098,1.253
		c1.311,0,2.336-0.407,3.08-1.233c0.746-0.826,1.117-1.99,1.117-3.503V-153.354z"/>
	<path fill="#A6A8AB" d="M-185.595-135.12l7.26-0.503c0.162,1.304,0.482,2.294,0.963,2.979c0.785,1.106,1.906,1.654,3.361,1.654
		c1.088,0,1.924-0.282,2.516-0.843c0.586-0.563,0.883-1.222,0.883-1.969c0-0.702-0.281-1.336-0.844-1.891
		c-0.555-0.56-1.857-1.092-3.898-1.585c-3.344-0.832-5.727-1.936-7.152-3.31c-1.434-1.38-2.152-3.132-2.152-5.268
		c0-1.399,0.367-2.725,1.104-3.97c0.734-1.25,1.84-2.227,3.316-2.939c1.477-0.716,3.496-1.069,6.066-1.069
		c3.152,0,5.553,0.646,7.211,1.94c1.652,1.295,2.637,3.354,2.951,6.179l-7.193,0.463c-0.191-1.225-0.59-2.114-1.201-2.668
		c-0.605-0.558-1.451-0.837-2.525-0.837c-0.887,0-1.551,0.206-1.998,0.623c-0.449,0.415-0.676,0.919-0.676,1.516
		c0,0.435,0.188,0.826,0.555,1.174c0.357,0.361,1.205,0.694,2.555,1.004c3.33,0.797,5.713,1.597,7.152,2.411
		c1.445,0.813,2.492,1.822,3.15,3.023c0.652,1.205,0.982,2.55,0.982,4.04c0,1.749-0.438,3.36-1.313,4.834
		c-0.875,1.479-2.098,2.597-3.67,3.36c-1.568,0.762-3.549,1.146-5.943,1.146c-4.199,0-7.102-0.892-8.719-2.682
		C-184.468-130.098-185.384-132.366-185.595-135.12z"/>
	<path fill="#A6A8AB" d="M-159.563-153.354h20.438v5.803h-12.791v4.352h11.887v5.558h-11.887v5.365h13.174v6.162h-20.82V-153.354z"
		/>
	<g>
		<rect x="-430.753" y="-181.214" fill="#FFF100" width="13.345" height="6.451"/>
		<rect x="-402.948" y="-181.214" fill="#FFF100" width="13.352" height="6.451"/>
		<rect x="-373.655" y="-181.214" fill="#FFF100" width="13.351" height="6.451"/>
		<rect x="-348.439" y="-181.214" fill="#FFF100" width="13.348" height="6.451"/>
		<rect x="-348.439" y="-165.741" fill="#FFF100" width="13.348" height="6.449"/>
		<rect x="-373.655" y="-165.741" fill="#FFF100" width="13.351" height="6.449"/>
		<rect x="-402.576" y="-165.741" fill="#FFF100" width="13.351" height="6.449"/>
		<rect x="-431.126" y="-165.741" fill="#FFF100" width="13.35" height="6.449"/>
	</g>
	<rect x="-492.304" y="-122.545" fill="#FBE737" width="356.324" height="7.735"/>
	<g>
		<g>
			<path fill="#FFF100" d="M-478.858-157.394c17.633-20.644,53.82-34.801,95.604-34.801c41.785,0,77.973,14.157,95.605,34.801
				h11.936c-17.887-25.782-59.301-43.842-107.542-43.842c-48.239,0-89.654,18.061-107.541,43.842H-478.858z"/>
		</g>
	</g>
	<g>
		<path fill="#FFFFFF" d="M-390.294-89.884h-1.561v-6.176h-5.935v6.176h-1.561v-12.881h1.561v5.188h5.935v-5.188h1.561V-89.884z"/>
		<path fill="#FFFFFF" d="M-377.716-89.866h-1.671l-1.428-3.231h-5.737l-1.429,3.231h-1.67l6.001-13.43L-377.716-89.866z
			 M-381.453-94.525l-2.22-5.254l-2.22,5.254H-381.453z"/>
		<path fill="#FFFFFF" d="M-369.136-89.884h-1.913l-3.671-5.451h-0.637v5.451h-1.583v-12.881h1.89c1.509,0,2.623,0.213,3.341,0.638
			c1.084,0.63,1.626,1.648,1.626,3.055c0,0.909-0.271,1.693-0.813,2.353c-0.542,0.659-1.268,1.069-2.176,1.231L-369.136-89.884z
			 M-371.554-99.007c0-1.552-1.128-2.329-3.385-2.329h-0.418v4.66h0.483C-372.661-96.676-371.554-97.453-371.554-99.007z"/>
		<path fill="#FFFFFF" d="M-358.729-96.39c0,2.08-0.659,3.701-1.978,4.856c-1.26,1.101-2.945,1.649-5.056,1.649h-2.528v-12.881
			h2.572c2.081,0,3.744,0.528,4.99,1.583C-359.396-100.039-358.729-98.441-358.729-96.39z M-360.29-96.325
			c0-3.312-1.964-4.968-5.891-4.968h-0.549v9.935h0.549C-362.254-91.357-360.29-93.013-360.29-96.325z"/>
		<path fill="#FFFFFF" d="M-341.372-102.745l-5.165,13.364l-3.539-9.451l-3.496,9.451l-5.209-13.364h1.67l3.539,9.166l3.496-9.452
			l3.539,9.452l3.495-9.166H-341.372z"/>
		<path fill="#FFFFFF" d="M-330.04-89.866h-1.671l-1.429-3.231h-5.737l-1.429,3.231h-1.67l6-13.43L-330.04-89.866z M-333.776-94.525
			l-2.221-5.254l-2.219,5.254H-333.776z"/>
		<path fill="#FFFFFF" d="M-321.46-89.884h-1.913l-3.67-5.451h-0.637v5.451h-1.583v-12.881h1.889c1.511,0,2.623,0.213,3.342,0.638
			c1.083,0.63,1.626,1.648,1.626,3.055c0,0.909-0.271,1.693-0.813,2.353c-0.542,0.659-1.267,1.069-2.176,1.231L-321.46-89.884z
			 M-323.878-99.007c0-1.552-1.128-2.329-3.385-2.329h-0.417v4.66h0.483C-324.985-96.676-323.878-97.453-323.878-99.007z"/>
		<path fill="#FFFFFF" d="M-313.789-89.884h-6.727v-12.881h6.727v1.473h-5.144v3.605h4.989v1.45h-4.989v4.879h5.144V-89.884z"/>
		<path fill="#FFFFFF" d="M-294.722-89.886h-1.913l-1.34-1.736c-1.202,1.334-2.455,2-3.76,2c-1.084,0-1.996-0.359-2.736-1.076
			c-0.741-0.719-1.11-1.621-1.11-2.704c0-0.733,0.212-1.393,0.637-1.979c0.293-0.411,0.806-0.887,1.54-1.429l0.813-0.617
			c-0.923-0.965-1.385-1.896-1.385-2.791c0-0.835,0.264-1.513,0.792-2.033s1.224-0.781,2.088-0.781c0.806,0,1.491,0.246,2.055,0.737
			c0.564,0.491,0.846,1.138,0.846,1.944c0,0.748-0.351,1.473-1.055,2.178c-0.235,0.22-0.653,0.563-1.252,1.032l2.615,3.232
			l1.452-1.736l0.989,1.054l-1.517,1.825L-294.722-89.886z M-298.943-92.765l-2.726-3.495l-0.176,0.131
			c-0.777,0.557-1.259,0.931-1.45,1.121c-0.543,0.528-0.813,1.057-0.813,1.583c0,0.631,0.23,1.184,0.692,1.66
			c0.462,0.477,1,0.715,1.616,0.715C-300.994-91.051-300.042-91.623-298.943-92.765z M-299.689-100.37
			c0-0.939-0.484-1.407-1.452-1.407c-0.396,0-0.725,0.129-0.989,0.385s-0.396,0.589-0.396,1c0,0.381,0.243,0.916,0.727,1.604
			l0.439,0.506l0.176-0.11c0.439-0.308,0.769-0.579,0.989-0.813C-299.858-99.557-299.689-99.945-299.689-100.37z"/>
		<path fill="#FFFFFF" d="M-285.731-89.884h-1.56v-12.881h1.56V-89.884z"/>
		<path fill="#FFFFFF" d="M-272.884-89.338l-9.364-10.089v9.715h-1.56v-13.65l9.364,10.111v-9.473h1.56V-89.338z"/>
		<path fill="#FFFFFF" d="M-261.443-96.39c0,2.08-0.659,3.701-1.979,4.856c-1.26,1.101-2.944,1.649-5.056,1.649h-2.528v-12.881
			h2.572c2.082,0,3.744,0.528,4.99,1.583C-262.11-100.039-261.443-98.441-261.443-96.39z M-263.003-96.325
			c0-3.312-1.964-4.968-5.891-4.968h-0.55v9.935h0.55C-264.967-91.357-263.003-93.013-263.003-96.325z"/>
		<path fill="#FFFFFF" d="M-251.189-94.61c0,1.45-0.396,2.63-1.187,3.539c-0.835,0.967-1.972,1.45-3.407,1.45
			c-1.407,0-2.517-0.476-3.33-1.428c-0.813-0.953-1.221-2.14-1.221-3.562v-8.155h1.562v7.606c0,2.695,0.996,4.044,2.989,4.044
			c2.022,0,3.033-1.349,3.033-4.044v-7.606h1.561V-94.61z"/>
		<path fill="#FFFFFF" d="M-242.102-93.622c0,1.157-0.378,2.113-1.132,2.868c-0.755,0.755-1.711,1.132-2.868,1.132
			c-1.011,0-1.869-0.351-2.573-1.056c-0.674-0.659-1.092-1.501-1.252-2.528l1.583-0.373c0,0.718,0.22,1.308,0.659,1.77
			c0.439,0.462,1.018,0.692,1.736,0.692c0.674,0,1.223-0.244,1.649-0.735c0.425-0.491,0.637-1.082,0.637-1.77
			c0-0.615-0.22-1.135-0.66-1.561c-0.263-0.249-0.762-0.542-1.494-0.879l-0.836-0.396c-0.879-0.396-1.517-0.798-1.913-1.208
			c-0.542-0.557-0.813-1.239-0.813-2.045c0-0.997,0.374-1.81,1.121-2.439c0.703-0.586,1.561-0.88,2.572-0.88
			c1.392,0,2.469,0.638,3.231,1.913l-1.252,0.769c-0.499-0.776-1.173-1.165-2.022-1.165c-0.572,0-1.063,0.162-1.473,0.484
			c-0.411,0.322-0.616,0.763-0.616,1.319c0,0.777,0.571,1.393,1.715,1.846l0.901,0.374c1.026,0.41,1.773,0.879,2.242,1.407
			C-242.387-95.439-242.102-94.619-242.102-93.622z"/>
		<path fill="#FFFFFF" d="M-234.323-101.292h-2.968v11.408h-1.538v-11.408h-2.968v-1.473h7.475V-101.292z"/>
		<path fill="#FFFFFF" d="M-225.536-89.884h-1.913l-3.671-5.451h-0.637v5.451h-1.583v-12.881h1.891c1.51,0,2.623,0.213,3.341,0.638
			c1.084,0.63,1.626,1.648,1.626,3.055c0,0.909-0.271,1.693-0.813,2.353c-0.542,0.659-1.267,1.069-2.175,1.231L-225.536-89.884z
			 M-227.954-99.007c0-1.552-1.129-2.329-3.386-2.329h-0.417v4.66h0.484C-229.061-96.676-227.954-97.453-227.954-99.007z"/>
		<path fill="#FFFFFF" d="M-223.063-89.884h-1.561v-12.881h1.561V-89.884z"/>
		<path fill="#FFFFFF" d="M-210.399-89.866h-1.67l-1.429-3.231h-5.737l-1.429,3.231h-1.671l6.001-13.43L-210.399-89.866z
			 M-214.137-94.525l-2.22-5.254l-2.22,5.254H-214.137z"/>
		<path fill="#FFFFFF" d="M-204.261-89.884h-5.361v-12.881h1.582v11.408h3.779V-89.884z"/>
		<path fill="#FFFFFF" d="M-189.46-93.622c0,1.157-0.377,2.113-1.131,2.868c-0.756,0.755-1.711,1.132-2.869,1.132
			c-1.012,0-1.867-0.351-2.572-1.056c-0.674-0.659-1.092-1.501-1.252-2.528l1.582-0.373c0,0.718,0.221,1.308,0.66,1.77
			s1.018,0.692,1.736,0.692c0.674,0,1.223-0.244,1.648-0.735c0.424-0.491,0.639-1.082,0.639-1.77c0-0.615-0.221-1.135-0.66-1.561
			c-0.266-0.249-0.764-0.542-1.496-0.879l-0.834-0.396c-0.881-0.396-1.518-0.798-1.912-1.208c-0.543-0.557-0.814-1.239-0.814-2.045
			c0-0.997,0.373-1.81,1.121-2.439c0.703-0.586,1.561-0.88,2.572-0.88c1.393,0,2.469,0.638,3.232,1.913l-1.254,0.769
			c-0.498-0.776-1.174-1.165-2.023-1.165c-0.57,0-1.063,0.162-1.473,0.484s-0.615,0.763-0.615,1.319
			c0,0.777,0.572,1.393,1.715,1.846l0.9,0.374c1.025,0.41,1.773,0.879,2.244,1.407C-189.745-95.439-189.46-94.619-189.46-93.622z"/>
		<path fill="#FFFFFF" d="M-179.05-94.61c0,1.45-0.396,2.63-1.186,3.539c-0.836,0.967-1.973,1.45-3.408,1.45
			c-1.406,0-2.518-0.476-3.33-1.428c-0.814-0.953-1.219-2.14-1.219-3.562v-8.155h1.559v7.606c0,2.695,0.998,4.044,2.99,4.044
			c2.021,0,3.033-1.349,3.033-4.044v-7.606h1.561V-94.61z"/>
		<path fill="#FFFFFF" d="M-170.3-99.028c0,1.26-0.432,2.219-1.297,2.879c-0.762,0.586-1.795,0.88-3.1,0.88h-0.879v5.385h-1.582
			v-12.881h1.801c1.568,0,2.748,0.228,3.539,0.682C-170.806-101.483-170.3-100.463-170.3-99.028z M-171.772-99.072
			c0-1.509-1.129-2.264-3.385-2.264h-0.418v4.615h0.484C-172.878-96.721-171.772-97.505-171.772-99.072z"/>
		<path fill="#FFFFFF" d="M-162.343-99.028c0,1.26-0.432,2.219-1.297,2.879c-0.762,0.586-1.795,0.88-3.1,0.88h-0.879v5.385h-1.582
			v-12.881h1.803c1.566,0,2.746,0.228,3.537,0.682C-162.849-101.483-162.343-100.463-162.343-99.028z M-163.815-99.072
			c0-1.509-1.129-2.264-3.385-2.264h-0.418v4.615h0.484C-164.921-96.721-163.815-97.505-163.815-99.072z"/>
		<path fill="#FFFFFF" d="M-155.88-89.884h-5.363v-12.881h1.582v11.408h3.781V-89.884z"/>
		<path fill="#FFFFFF" d="M-153.583-89.884h-1.561v-12.881h1.561V-89.884z"/>
		<path fill="#FFFFFF" d="M-144.802-89.884h-6.727v-12.881h6.727v1.473h-5.145v3.605h4.99v1.45h-4.99v4.879h5.145V-89.884z"/>
		<path fill="#FFFFFF" d="M-135.937-93.622c0,1.157-0.377,2.113-1.133,2.868c-0.754,0.755-1.709,1.132-2.867,1.132
			c-1.012,0-1.869-0.351-2.572-1.056c-0.676-0.659-1.092-1.501-1.254-2.528l1.584-0.373c0,0.718,0.219,1.308,0.658,1.77
			s1.02,0.692,1.736,0.692c0.676,0,1.225-0.244,1.65-0.735c0.424-0.491,0.637-1.082,0.637-1.77c0-0.615-0.221-1.135-0.66-1.561
			c-0.264-0.249-0.762-0.542-1.494-0.879l-0.834-0.396c-0.881-0.396-1.518-0.798-1.912-1.208c-0.543-0.557-0.814-1.239-0.814-2.045
			c0-0.997,0.373-1.81,1.121-2.439c0.703-0.586,1.561-0.88,2.572-0.88c1.391,0,2.469,0.638,3.23,1.913l-1.252,0.769
			c-0.5-0.776-1.174-1.165-2.023-1.165c-0.572,0-1.063,0.162-1.473,0.484s-0.615,0.763-0.615,1.319c0,0.777,0.57,1.393,1.715,1.846
			l0.9,0.374c1.025,0.41,1.773,0.879,2.242,1.407C-136.222-95.439-135.937-94.619-135.937-93.622z"/>
	</g>
	<path fill="#034EA1" stroke="#034EA1" stroke-width="2" d="M390.477,155.244c0.004,7.782-5.446,14.1-12.175,14.104l-363.173,0.289
		c-6.729,0.004-12.194-6.3-12.199-14.085L2.834,18.675C2.826,10.894,8.278,4.576,15.007,4.574l363.175-0.291
		c6.726-0.004,12.188,6.305,12.196,14.093L390.477,155.244z"/>
	<path fill="#FFF100" d="M19.979,77.52h7.611v9.551h8.344V77.52h7.648v27.241h-7.648V93.759H27.59v11.001h-7.611V77.52z"/>
	<path fill="#FFF100" d="M64.601,100.921h-8.64l-1.204,4.514H46.97l9.232-27.241h8.349l9.258,27.241h-7.975L64.601,100.921z
		 M63.023,95.04l-2.723-9.784l-2.687,9.784H63.023z"/>
	<path fill="#FFF100" d="M76.17,105.436V78.195h12.714c2.358,0,4.16,0.225,5.405,0.668c1.25,0.446,2.252,1.27,3.018,2.478
		c0.761,1.204,1.145,2.671,1.145,4.404c0,1.507-0.291,2.809-0.878,3.905c-0.584,1.093-1.39,1.984-2.415,2.659
		c-0.651,0.431-1.545,0.792-2.684,1.079c0.909,0.336,1.573,0.672,1.984,1.011c0.279,0.227,0.686,0.705,1.221,1.443
		c0.53,0.738,0.889,1.301,1.064,1.702l3.723,7.892h-8.607l-4.105-8.345c-0.516-1.078-0.979-1.783-1.385-2.101
		c-0.555-0.422-1.179-0.634-1.876-0.634h-0.68v11.08H76.17z M83.813,89.199h3.233c0.352,0,1.027-0.126,2.031-0.372
		c0.508-0.113,0.922-0.394,1.246-0.854c0.318-0.456,0.48-0.978,0.48-1.572c0-0.876-0.256-1.552-0.761-2.021
		c-0.512-0.466-1.464-0.704-2.86-0.704h-3.37V89.199z"/>
	<path fill="#FFF100" d="M102.796,78.195h11.321c2.237,0,4.04,0.336,5.414,1.006c1.374,0.669,2.508,1.627,3.406,2.878
		c0.896,1.252,1.546,2.709,1.95,4.366c0.406,1.661,0.61,3.421,0.61,5.278c0,2.91-0.304,5.169-0.902,6.77
		c-0.602,1.608-1.432,2.949-2.502,4.033c-1.063,1.083-2.207,1.806-3.432,2.165c-1.67,0.497-3.184,0.744-4.545,0.744h-11.321V78.195z
		 M110.406,84.361v14.867h1.875c1.596,0,2.729-0.194,3.404-0.581c0.678-0.393,1.207-1.071,1.59-2.046
		c0.383-0.967,0.572-2.546,0.572-4.724c0-2.882-0.426-4.854-1.283-5.92c-0.855-1.061-2.271-1.596-4.252-1.596H110.406z"/>
	<path fill="#FFF100" d="M127.371,78.195h7.234l2.619,15.156l3.808-15.156h7.179l3.814,15.139l2.627-15.139h7.199l-5.434,27.241
		h-7.468l-4.322-17.15l-4.307,17.15h-7.468L127.371,78.195z"/>
	<path fill="#FFF100" d="M179.354,100.921h-8.645l-1.198,4.514h-7.792l9.236-27.241h8.345l9.255,27.241h-7.971L179.354,100.921z
		 M177.775,95.04l-2.725-9.784l-2.688,9.784H177.775z"/>
	<path fill="#FFF100" d="M190.919,105.436V78.195h12.714c2.358,0,4.161,0.225,5.41,0.668c1.246,0.446,2.25,1.27,3.014,2.478
		c0.765,1.204,1.145,2.671,1.145,4.404c0,1.507-0.293,2.809-0.875,3.905c-0.588,1.093-1.389,1.984-2.414,2.659
		c-0.656,0.431-1.547,0.792-2.683,1.079c0.903,0.336,1.567,0.672,1.979,1.011c0.285,0.227,0.689,0.705,1.223,1.443
		c0.528,0.738,0.886,1.301,1.064,1.702l3.723,7.892h-8.609l-4.104-8.345c-0.519-1.078-0.982-1.783-1.388-2.101
		c-0.55-0.422-1.177-0.634-1.872-0.634h-0.678v11.08H190.919z M198.568,89.199h3.228c0.354,0,1.032-0.126,2.031-0.372
		c0.508-0.113,0.923-0.394,1.244-0.854c0.323-0.456,0.483-0.978,0.483-1.572c0-0.876-0.251-1.552-0.762-2.021
		c-0.509-0.466-1.461-0.704-2.858-0.704h-3.366V89.199z"/>
	<path fill="#FFF100" d="M217.441,78.195h20.442v5.803h-12.796v4.352h11.889v5.558h-11.889v5.365h13.176v6.162h-20.822V78.195z"/>
	<path fill="#A6A8AB" d="M242.221,78.195h7.611v9.551h8.343v-9.551h7.646v27.241h-7.646V94.435h-8.343v11.001h-7.611V78.195z"/>
	<path fill="#A6A8AB" d="M269.74,91.834c0-4.449,1.122-7.918,3.365-10.401c2.249-2.479,5.375-3.719,9.385-3.719
		c4.111,0,7.274,1.217,9.496,3.655c2.23,2.437,3.34,5.85,3.34,10.244c0,3.185-0.486,5.799-1.459,7.842
		c-0.973,2.04-2.377,3.623-4.21,4.765c-1.833,1.132-4.124,1.7-6.864,1.7c-2.783,0-5.087-0.487-6.911-1.473
		c-1.824-0.978-3.303-2.526-4.438-4.648C270.31,97.678,269.74,95.023,269.74,91.834z M277.355,91.872
		c0,2.764,0.463,4.745,1.391,5.949c0.931,1.208,2.196,1.812,3.796,1.812c1.644,0,2.915-0.592,3.818-1.772
		c0.905-1.184,1.353-3.301,1.353-6.36c0-2.572-0.472-4.453-1.414-5.641c-0.939-1.187-2.213-1.782-3.827-1.782
		c-1.54,0-2.78,0.603-3.715,1.81C277.821,87.094,277.355,89.089,277.355,91.872z"/>
	<path fill="#A6A8AB" d="M315.267,78.195h7.613v16.243c0,1.609-0.229,3.128-0.686,4.561c-0.449,1.429-1.164,2.683-2.135,3.753
		c-0.969,1.07-1.984,1.827-3.051,2.257c-1.48,0.606-3.26,0.911-5.336,0.911c-1.199,0-2.51-0.095-3.926-0.278
		c-1.42-0.186-2.604-0.556-3.559-1.107c-0.953-0.548-1.825-1.333-2.617-2.35c-0.789-1.018-1.333-2.06-1.62-3.141
		c-0.475-1.731-0.709-3.268-0.709-4.605V78.195h7.61v16.621c0,1.486,0.377,2.644,1.119,3.483c0.744,0.834,1.777,1.253,3.098,1.253
		c1.311,0,2.336-0.407,3.08-1.233c0.746-0.826,1.117-1.99,1.117-3.503V78.195z"/>
	<path fill="#A6A8AB" d="M326.415,96.429l7.26-0.503c0.162,1.304,0.482,2.294,0.963,2.979c0.785,1.106,1.906,1.654,3.361,1.654
		c1.088,0,1.924-0.282,2.516-0.843c0.586-0.563,0.883-1.222,0.883-1.969c0-0.702-0.281-1.336-0.844-1.891
		c-0.555-0.56-1.857-1.092-3.898-1.585c-3.344-0.832-5.727-1.936-7.152-3.31c-1.434-1.38-2.152-3.132-2.152-5.268
		c0-1.399,0.367-2.725,1.104-3.97c0.734-1.25,1.84-2.227,3.316-2.939c1.477-0.716,3.496-1.069,6.066-1.069
		c3.152,0,5.553,0.646,7.211,1.94c1.652,1.295,2.637,3.354,2.951,6.179l-7.193,0.463c-0.191-1.225-0.59-2.114-1.201-2.668
		c-0.605-0.558-1.451-0.837-2.525-0.837c-0.887,0-1.551,0.206-1.998,0.623c-0.449,0.415-0.676,0.919-0.676,1.516
		c0,0.435,0.188,0.826,0.555,1.174c0.357,0.361,1.205,0.694,2.555,1.004c3.33,0.797,5.713,1.597,7.152,2.411
		c1.445,0.813,2.492,1.822,3.15,3.023c0.652,1.205,0.982,2.55,0.982,4.04c0,1.749-0.438,3.36-1.313,4.834
		c-0.875,1.479-2.098,2.597-3.67,3.36c-1.568,0.762-3.549,1.146-5.943,1.146c-4.199,0-7.102-0.892-8.719-2.682
		C327.542,101.45,326.626,99.182,326.415,96.429z"/>
	<path fill="#A6A8AB" d="M352.446,78.195h20.438v5.803h-12.791v4.352h11.887v5.558h-11.887v5.365h13.174v6.162h-20.82V78.195z"/>
	<g>
		<rect x="81.257" y="50.334" fill="#FFF100" width="13.345" height="6.451"/>
		<rect x="109.063" y="50.334" fill="#FFF100" width="13.352" height="6.451"/>
		<rect x="138.355" y="50.334" fill="#FFF100" width="13.35" height="6.451"/>
		<rect x="163.57" y="50.334" fill="#FFF100" width="13.349" height="6.451"/>
		<rect x="163.57" y="65.808" fill="#FFF100" width="13.349" height="6.449"/>
		<rect x="138.355" y="65.808" fill="#FFF100" width="13.35" height="6.449"/>
		<rect x="109.434" y="65.808" fill="#FFF100" width="13.352" height="6.449"/>
		<rect x="80.884" y="65.808" fill="#FFF100" width="13.35" height="6.449"/>
	</g>
	<rect x="19.706" y="109.003" fill="#FBE737" width="356.324" height="7.735"/>
	<g>
		<g>
			<path fill="#FFF100" d="M33.152,74.154c17.632-20.644,53.82-34.801,95.604-34.801c41.785,0,77.974,14.157,95.606,34.801h11.936
				c-17.887-25.782-59.301-43.842-107.542-43.842c-48.239,0-89.654,18.061-107.541,43.842H33.152z"/>
		</g>
	</g>
	<g>
		<path fill="#FFFFFF" d="M107.225,141.006h-1.649v-6.503h-6.272v6.503h-1.649v-13.562h1.649v5.462h6.272v-5.462h1.649V141.006z"/>
		<path fill="#FFFFFF" d="M120.518,141.025h-1.766l-1.51-3.402h-6.064l-1.51,3.402h-1.766l6.343-14.14L120.518,141.025z
			 M116.568,136.119l-2.347-5.532l-2.346,5.532H116.568z"/>
		<path fill="#FFFFFF" d="M129.586,141.006h-2.021l-3.88-5.74h-0.673v5.74h-1.673v-13.562h1.999c1.595,0,2.772,0.225,3.531,0.672
			c1.146,0.663,1.718,1.735,1.718,3.217c0,0.956-0.287,1.782-0.858,2.476c-0.574,0.694-1.34,1.126-2.3,1.297L129.586,141.006z
			 M127.029,131.401c0-1.634-1.192-2.453-3.577-2.453h-0.441v4.907h0.511C125.861,133.856,127.029,133.037,127.029,131.401z"/>
		<path fill="#FFFFFF" d="M140.585,134.156c0,2.189-0.697,3.896-2.091,5.113c-1.333,1.159-3.112,1.737-5.343,1.737h-2.672v-13.562
			h2.719c2.199,0,3.957,0.557,5.273,1.667C139.88,130.315,140.585,131.996,140.585,134.156z M138.935,134.225
			c0-3.487-2.075-5.23-6.226-5.23h-0.581v10.46h0.581C136.86,139.455,138.935,137.712,138.935,134.225z"/>
		<path fill="#FFFFFF" d="M158.931,127.466l-5.46,14.07l-3.74-9.95l-3.694,9.95l-5.506-14.07h1.766l3.74,9.65l3.694-9.952
			l3.74,9.952l3.694-9.65H158.931z"/>
		<path fill="#FFFFFF" d="M170.907,141.025h-1.767l-1.509-3.402h-6.063l-1.51,3.402h-1.765l6.341-14.14L170.907,141.025z
			 M166.958,136.119l-2.348-5.532l-2.346,5.532H166.958z"/>
		<path fill="#FFFFFF" d="M179.973,141.006h-2.021l-3.879-5.74h-0.674v5.74h-1.673v-13.562h1.997c1.597,0,2.772,0.225,3.533,0.672
			c1.145,0.663,1.718,1.735,1.718,3.217c0,0.956-0.287,1.782-0.859,2.476c-0.571,0.694-1.339,1.126-2.299,1.297L179.973,141.006z
			 M177.418,131.401c0-1.634-1.192-2.453-3.578-2.453h-0.441v4.907h0.511C176.25,133.856,177.418,133.037,177.418,131.401z"/>
		<path fill="#FFFFFF" d="M188.081,141.006h-7.109v-13.562h7.109v1.551h-5.436v3.796h5.273v1.527h-5.273v5.137h5.436V141.006z"/>
		<path fill="#FFFFFF" d="M208.232,141.004h-2.021l-1.416-1.828c-1.271,1.405-2.595,2.106-3.974,2.106
			c-1.146,0-2.109-0.378-2.891-1.133c-0.783-0.757-1.174-1.706-1.174-2.847c0-0.772,0.225-1.466,0.674-2.083
			c0.31-0.433,0.851-0.934,1.627-1.504l0.859-0.649c-0.975-1.016-1.463-1.997-1.463-2.938c0-0.879,0.278-1.593,0.835-2.141
			c0.558-0.547,1.294-0.822,2.208-0.822c0.851,0,1.575,0.259,2.171,0.776c0.597,0.517,0.895,1.198,0.895,2.047
			c0,0.788-0.372,1.551-1.114,2.293c-0.25,0.231-0.691,0.593-1.324,1.086l2.763,3.403l1.535-1.828l1.045,1.109l-1.603,1.921
			L208.232,141.004z M203.771,137.973l-2.88-3.679l-0.186,0.138c-0.821,0.586-1.331,0.98-1.534,1.18
			c-0.573,0.556-0.858,1.112-0.858,1.667c0,0.664,0.243,1.247,0.73,1.748c0.489,0.501,1.057,0.752,1.708,0.752
			C201.604,139.778,202.61,139.176,203.771,137.973z M202.983,129.966c0-0.988-0.512-1.481-1.533-1.481
			c-0.419,0-0.767,0.135-1.047,0.405c-0.279,0.27-0.418,0.621-0.418,1.053c0,0.401,0.257,0.964,0.768,1.689l0.463,0.532l0.187-0.115
			c0.465-0.324,0.812-0.61,1.045-0.856C202.805,130.822,202.983,130.413,202.983,129.966z"/>
		<path fill="#FFFFFF" d="M217.736,141.006h-1.649v-13.562h1.649V141.006z"/>
		<path fill="#FFFFFF" d="M231.313,141.58l-9.896-10.622v10.228h-1.649v-14.371l9.897,10.646v-9.974h1.648V141.58z"/>
		<path fill="#FFFFFF" d="M243.404,134.156c0,2.189-0.695,3.896-2.091,5.113c-1.332,1.159-3.11,1.737-5.342,1.737h-2.672v-13.562
			h2.719c2.199,0,3.957,0.557,5.273,1.667C242.701,130.315,243.404,131.996,243.404,134.156z M241.756,134.225
			c0-3.487-2.075-5.23-6.226-5.23h-0.581v10.46h0.581C239.681,139.455,241.756,137.712,241.756,134.225z"/>
		<path fill="#FFFFFF" d="M254.241,136.03c0,1.526-0.417,2.769-1.253,3.726c-0.882,1.019-2.084,1.526-3.601,1.526
			c-1.487,0-2.66-0.5-3.52-1.503c-0.859-1.003-1.29-2.253-1.29-3.75v-8.586h1.651v8.008c0,2.837,1.051,4.258,3.158,4.258
			c2.137,0,3.206-1.421,3.206-4.258v-8.008h1.649V136.03z"/>
		<path fill="#FFFFFF" d="M263.847,137.07c0,1.218-0.399,2.225-1.197,3.02c-0.797,0.795-1.809,1.192-3.031,1.192
			c-1.069,0-1.976-0.37-2.72-1.112c-0.713-0.694-1.154-1.58-1.324-2.661l1.675-0.393c0,0.756,0.231,1.377,0.695,1.863
			c0.465,0.487,1.077,0.728,1.835,0.728c0.713,0,1.293-0.256,1.743-0.773c0.449-0.518,0.674-1.139,0.674-1.863
			c0-0.647-0.233-1.195-0.698-1.644c-0.278-0.262-0.805-0.57-1.579-0.926l-0.883-0.417c-0.929-0.417-1.604-0.84-2.021-1.272
			c-0.572-0.587-0.859-1.305-0.859-2.153c0-1.049,0.396-1.905,1.185-2.568c0.743-0.617,1.65-0.926,2.718-0.926
			c1.471,0,2.61,0.672,3.416,2.013l-1.324,0.81c-0.528-0.817-1.24-1.226-2.138-1.226c-0.604,0-1.123,0.17-1.557,0.51
			c-0.433,0.339-0.65,0.803-0.65,1.388c0,0.818,0.603,1.466,1.813,1.944l0.952,0.394c1.083,0.432,1.875,0.926,2.37,1.481
			C263.545,135.157,263.847,136.021,263.847,137.07z"/>
		<path fill="#FFFFFF" d="M272.067,128.995h-3.137v12.011h-1.626v-12.011h-3.137v-1.551h7.9V128.995z"/>
		<path fill="#FFFFFF" d="M281.354,141.006h-2.021l-3.88-5.74h-0.673v5.74h-1.672v-13.562h1.998c1.596,0,2.772,0.225,3.531,0.672
			c1.146,0.663,1.718,1.735,1.718,3.217c0,0.956-0.287,1.782-0.859,2.476c-0.573,0.694-1.34,1.126-2.3,1.297L281.354,141.006z
			 M278.799,131.401c0-1.634-1.194-2.453-3.578-2.453h-0.442v4.907h0.511C277.629,133.856,278.799,133.037,278.799,131.401z"/>
		<path fill="#FFFFFF" d="M283.967,141.006h-1.65v-13.562h1.65V141.006z"/>
		<path fill="#FFFFFF" d="M297.352,141.025h-1.764l-1.51-3.402h-6.064l-1.51,3.402h-1.766l6.342-14.14L297.352,141.025z
			 M293.401,136.119l-2.345-5.532l-2.346,5.532H293.401z"/>
		<path fill="#FFFFFF" d="M303.841,141.006h-5.668v-13.562h1.673v12.011h3.995V141.006z"/>
		<path fill="#FFFFFF" d="M319.483,137.07c0,1.218-0.398,2.225-1.196,3.02c-0.799,0.795-1.808,1.192-3.031,1.192
			c-1.069,0-1.975-0.37-2.719-1.112c-0.713-0.694-1.154-1.58-1.322-2.661l1.671-0.393c0,0.756,0.232,1.377,0.698,1.863
			c0.464,0.487,1.075,0.728,1.835,0.728c0.712,0,1.292-0.256,1.741-0.773c0.448-0.518,0.676-1.139,0.676-1.863
			c0-0.647-0.233-1.195-0.698-1.644c-0.28-0.262-0.808-0.57-1.581-0.926l-0.881-0.417c-0.932-0.417-1.604-0.84-2.022-1.272
			c-0.572-0.587-0.859-1.305-0.859-2.153c0-1.049,0.394-1.905,1.184-2.568c0.744-0.617,1.65-0.926,2.719-0.926
			c1.473,0,2.61,0.672,3.417,2.013l-1.325,0.81c-0.526-0.817-1.24-1.226-2.139-1.226c-0.603,0-1.123,0.17-1.556,0.51
			c-0.434,0.339-0.651,0.803-0.651,1.388c0,0.818,0.605,1.466,1.813,1.944l0.952,0.394c1.084,0.432,1.872,0.926,2.37,1.481
			C319.182,135.157,319.483,136.021,319.483,137.07z"/>
		<path fill="#FFFFFF" d="M330.485,136.03c0,1.526-0.419,2.769-1.253,3.726c-0.883,1.019-2.085,1.526-3.602,1.526
			c-1.487,0-2.662-0.5-3.52-1.503c-0.862-1.003-1.289-2.253-1.289-3.75v-8.586h1.647v8.008c0,2.837,1.055,4.258,3.161,4.258
			c2.136,0,3.204-1.421,3.204-4.258v-8.008h1.65V136.03z"/>
		<path fill="#FFFFFF" d="M339.733,131.379c0,1.327-0.457,2.336-1.371,3.031c-0.806,0.618-1.897,0.927-3.276,0.927h-0.929v5.669
			h-1.672v-13.562h1.903c1.657,0,2.903,0.24,3.739,0.718C339.198,128.794,339.733,129.867,339.733,131.379z M338.177,131.333
			c0-1.589-1.193-2.384-3.577-2.384h-0.442v4.859h0.512C337.007,133.808,338.177,132.982,338.177,131.333z"/>
		<path fill="#FFFFFF" d="M348.143,131.379c0,1.327-0.455,2.336-1.37,3.031c-0.806,0.618-1.897,0.927-3.276,0.927h-0.93v5.669
			h-1.671v-13.562h1.904c1.655,0,2.903,0.24,3.738,0.718C347.607,128.794,348.143,129.867,348.143,131.379z M346.585,131.333
			c0-1.589-1.191-2.384-3.576-2.384h-0.442v4.859h0.513C345.417,133.808,346.585,132.982,346.585,131.333z"/>
		<path fill="#FFFFFF" d="M354.973,141.006h-5.668v-13.562h1.672v12.011h3.996V141.006z"/>
		<path fill="#FFFFFF" d="M357.4,141.006h-1.649v-13.562h1.649V141.006z"/>
		<path fill="#FFFFFF" d="M366.682,141.006h-7.108v-13.562h7.108v1.551h-5.438v3.796h5.274v1.527h-5.274v5.137h5.438V141.006z"/>
		<path fill="#FFFFFF" d="M376.051,137.07c0,1.218-0.399,2.225-1.198,3.02c-0.796,0.795-1.805,1.192-3.029,1.192
			c-1.069,0-1.976-0.37-2.719-1.112c-0.714-0.694-1.154-1.58-1.324-2.661l1.673-0.393c0,0.756,0.231,1.377,0.696,1.863
			c0.465,0.487,1.077,0.728,1.834,0.728c0.715,0,1.295-0.256,1.745-0.773c0.448-0.518,0.673-1.139,0.673-1.863
			c0-0.647-0.232-1.195-0.698-1.644c-0.278-0.262-0.805-0.57-1.578-0.926l-0.882-0.417c-0.932-0.417-1.604-0.84-2.021-1.272
			c-0.574-0.587-0.86-1.305-0.86-2.153c0-1.049,0.394-1.905,1.185-2.568c0.743-0.617,1.649-0.926,2.719-0.926
			c1.469,0,2.609,0.672,3.413,2.013l-1.323,0.81c-0.527-0.817-1.239-1.226-2.138-1.226c-0.604,0-1.124,0.17-1.557,0.51
			c-0.434,0.339-0.65,0.803-0.65,1.388c0,0.818,0.604,1.466,1.813,1.944l0.951,0.394c1.084,0.432,1.875,0.926,2.37,1.481
			C375.749,135.157,376.051,136.021,376.051,137.07z"/>
	</g>
</g>
</svg>
